<mxfile host="app.diagrams.net" modified="2024-02-01T22:03:33.940Z" agent="Mozilla/5.0 (Windows NT 10.0; Win64; x64) AppleWebKit/537.36 (KHTML, like Gecko) Chrome/120.0.0.0 Safari/537.36" etag="Fbh6gGvJ6fWz6lzfAjfs" version="23.1.1" type="device">
  <diagram id="C5RBs43oDa-KdzZeNtuy" name="Page-1">
    <mxGraphModel dx="1050" dy="557" grid="1" gridSize="10" guides="1" tooltips="1" connect="1" arrows="1" fold="1" page="1" pageScale="1" pageWidth="827" pageHeight="1169" math="0" shadow="0">
      <root>
        <mxCell id="WIyWlLk6GJQsqaUBKTNV-0" />
        <mxCell id="WIyWlLk6GJQsqaUBKTNV-1" parent="WIyWlLk6GJQsqaUBKTNV-0" />
        <mxCell id="WIyWlLk6GJQsqaUBKTNV-2" value="" style="rounded=0;html=1;jettySize=auto;orthogonalLoop=1;fontSize=11;endArrow=block;endFill=0;endSize=8;strokeWidth=1;shadow=0;labelBackgroundColor=none;edgeStyle=orthogonalEdgeStyle;" parent="WIyWlLk6GJQsqaUBKTNV-1" source="WIyWlLk6GJQsqaUBKTNV-3" edge="1">
          <mxGeometry relative="1" as="geometry">
            <mxPoint x="144" y="170" as="targetPoint" />
          </mxGeometry>
        </mxCell>
        <mxCell id="WIyWlLk6GJQsqaUBKTNV-3" value="Create Skeleton for input. Main Class and method" style="rounded=1;whiteSpace=wrap;html=1;fontSize=12;glass=0;strokeWidth=1;shadow=0;" parent="WIyWlLk6GJQsqaUBKTNV-1" vertex="1">
          <mxGeometry x="79" y="60" width="130" height="60" as="geometry" />
        </mxCell>
        <mxCell id="4Ep3CnUJhhiaBOsG1Qel-41" style="edgeStyle=orthogonalEdgeStyle;rounded=0;orthogonalLoop=1;jettySize=auto;html=1;entryX=0.5;entryY=0;entryDx=0;entryDy=0;" edge="1" parent="WIyWlLk6GJQsqaUBKTNV-1" source="WIyWlLk6GJQsqaUBKTNV-7" target="WIyWlLk6GJQsqaUBKTNV-11">
          <mxGeometry relative="1" as="geometry" />
        </mxCell>
        <mxCell id="WIyWlLk6GJQsqaUBKTNV-7" value="Implement method call and print for tester" style="rounded=1;whiteSpace=wrap;html=1;fontSize=12;glass=0;strokeWidth=1;shadow=0;" parent="WIyWlLk6GJQsqaUBKTNV-1" vertex="1">
          <mxGeometry x="84" y="170" width="120" height="50" as="geometry" />
        </mxCell>
        <mxCell id="XAZvE6oF7h6Hk18E7Ucl-1" style="edgeStyle=orthogonalEdgeStyle;rounded=0;orthogonalLoop=1;jettySize=auto;html=1;exitX=1;exitY=0.5;exitDx=0;exitDy=0;entryX=0;entryY=1;entryDx=0;entryDy=0;" parent="WIyWlLk6GJQsqaUBKTNV-1" source="WIyWlLk6GJQsqaUBKTNV-11" target="XAZvE6oF7h6Hk18E7Ucl-3" edge="1">
          <mxGeometry relative="1" as="geometry">
            <mxPoint x="254" y="120" as="targetPoint" />
            <Array as="points">
              <mxPoint x="255" y="310" />
              <mxPoint x="255" y="120" />
              <mxPoint x="264" y="120" />
            </Array>
          </mxGeometry>
        </mxCell>
        <mxCell id="WIyWlLk6GJQsqaUBKTNV-11" value="Define sortArr method, myArr and arrSize" style="rounded=1;whiteSpace=wrap;html=1;fontSize=12;glass=0;strokeWidth=1;shadow=0;" parent="WIyWlLk6GJQsqaUBKTNV-1" vertex="1">
          <mxGeometry x="84" y="290" width="120" height="40" as="geometry" />
        </mxCell>
        <mxCell id="XAZvE6oF7h6Hk18E7Ucl-3" value="What sorting algorithm should be used?" style="rhombus;whiteSpace=wrap;html=1;" parent="WIyWlLk6GJQsqaUBKTNV-1" vertex="1">
          <mxGeometry x="244" y="30" width="110" height="110" as="geometry" />
        </mxCell>
        <mxCell id="4Ep3CnUJhhiaBOsG1Qel-2" value="" style="endArrow=classic;html=1;rounded=0;entryX=0.5;entryY=0;entryDx=0;entryDy=0;" edge="1" parent="WIyWlLk6GJQsqaUBKTNV-1" source="XAZvE6oF7h6Hk18E7Ucl-3" target="4Ep3CnUJhhiaBOsG1Qel-3">
          <mxGeometry width="50" height="50" relative="1" as="geometry">
            <mxPoint x="299" y="190" as="sourcePoint" />
            <mxPoint x="324" y="180" as="targetPoint" />
          </mxGeometry>
        </mxCell>
        <mxCell id="4Ep3CnUJhhiaBOsG1Qel-3" value="Is the project&lt;br&gt;simple?" style="rhombus;whiteSpace=wrap;html=1;" vertex="1" parent="WIyWlLk6GJQsqaUBKTNV-1">
          <mxGeometry x="284" y="170" width="100" height="90" as="geometry" />
        </mxCell>
        <mxCell id="4Ep3CnUJhhiaBOsG1Qel-6" value="Yes" style="rounded=0;html=1;jettySize=auto;orthogonalLoop=1;fontSize=11;endArrow=block;endFill=0;endSize=8;strokeWidth=1;shadow=0;labelBackgroundColor=none;edgeStyle=orthogonalEdgeStyle;exitX=0.5;exitY=1;exitDx=0;exitDy=0;entryX=0;entryY=0.75;entryDx=0;entryDy=0;" edge="1" parent="WIyWlLk6GJQsqaUBKTNV-1" source="4Ep3CnUJhhiaBOsG1Qel-3" target="4Ep3CnUJhhiaBOsG1Qel-10">
          <mxGeometry x="-0.604" y="10" relative="1" as="geometry">
            <mxPoint as="offset" />
            <mxPoint x="154" y="230" as="sourcePoint" />
            <mxPoint x="394" y="310" as="targetPoint" />
            <Array as="points">
              <mxPoint x="334" y="285" />
              <mxPoint x="335" y="285" />
              <mxPoint x="335" y="305" />
            </Array>
          </mxGeometry>
        </mxCell>
        <mxCell id="4Ep3CnUJhhiaBOsG1Qel-11" style="edgeStyle=orthogonalEdgeStyle;rounded=0;orthogonalLoop=1;jettySize=auto;html=1;entryX=0.5;entryY=1;entryDx=0;entryDy=0;" edge="1" parent="WIyWlLk6GJQsqaUBKTNV-1" source="4Ep3CnUJhhiaBOsG1Qel-10" target="4Ep3CnUJhhiaBOsG1Qel-12">
          <mxGeometry relative="1" as="geometry">
            <mxPoint x="414" y="120" as="targetPoint" />
            <Array as="points">
              <mxPoint x="454" y="180" />
              <mxPoint x="454" y="180" />
            </Array>
          </mxGeometry>
        </mxCell>
        <mxCell id="4Ep3CnUJhhiaBOsG1Qel-10" value="Bubble Sort" style="rounded=1;whiteSpace=wrap;html=1;" vertex="1" parent="WIyWlLk6GJQsqaUBKTNV-1">
          <mxGeometry x="394" y="260" width="120" height="60" as="geometry" />
        </mxCell>
        <mxCell id="4Ep3CnUJhhiaBOsG1Qel-16" value="" style="edgeStyle=orthogonalEdgeStyle;rounded=0;orthogonalLoop=1;jettySize=auto;html=1;entryX=0;entryY=0.5;entryDx=0;entryDy=0;" edge="1" parent="WIyWlLk6GJQsqaUBKTNV-1" source="4Ep3CnUJhhiaBOsG1Qel-12" target="4Ep3CnUJhhiaBOsG1Qel-18">
          <mxGeometry relative="1" as="geometry">
            <mxPoint x="554" y="120" as="targetPoint" />
          </mxGeometry>
        </mxCell>
        <mxCell id="4Ep3CnUJhhiaBOsG1Qel-12" value="Implement Sort using loops and example from Google" style="rounded=1;whiteSpace=wrap;html=1;" vertex="1" parent="WIyWlLk6GJQsqaUBKTNV-1">
          <mxGeometry x="394" y="90" width="120" height="60" as="geometry" />
        </mxCell>
        <mxCell id="4Ep3CnUJhhiaBOsG1Qel-34" style="edgeStyle=orthogonalEdgeStyle;rounded=0;orthogonalLoop=1;jettySize=auto;html=1;entryX=0.25;entryY=0;entryDx=0;entryDy=0;" edge="1" parent="WIyWlLk6GJQsqaUBKTNV-1" source="4Ep3CnUJhhiaBOsG1Qel-18" target="4Ep3CnUJhhiaBOsG1Qel-32">
          <mxGeometry relative="1" as="geometry" />
        </mxCell>
        <mxCell id="4Ep3CnUJhhiaBOsG1Qel-18" value="Did the &lt;br&gt;method throw an error" style="rhombus;whiteSpace=wrap;html=1;" vertex="1" parent="WIyWlLk6GJQsqaUBKTNV-1">
          <mxGeometry x="550" y="23" width="100" height="100" as="geometry" />
        </mxCell>
        <mxCell id="4Ep3CnUJhhiaBOsG1Qel-20" value="Yes" style="rounded=0;html=1;jettySize=auto;orthogonalLoop=1;fontSize=11;endArrow=block;endFill=0;endSize=8;strokeWidth=1;shadow=0;labelBackgroundColor=none;edgeStyle=orthogonalEdgeStyle;exitX=0.5;exitY=1;exitDx=0;exitDy=0;entryX=0.25;entryY=1;entryDx=0;entryDy=0;" edge="1" parent="WIyWlLk6GJQsqaUBKTNV-1" source="4Ep3CnUJhhiaBOsG1Qel-18" target="4Ep3CnUJhhiaBOsG1Qel-21">
          <mxGeometry x="1" y="260" relative="1" as="geometry">
            <mxPoint x="216" y="115" as="offset" />
            <mxPoint x="344" y="223" as="sourcePoint" />
            <mxPoint x="595" y="173" as="targetPoint" />
            <Array as="points" />
          </mxGeometry>
        </mxCell>
        <mxCell id="4Ep3CnUJhhiaBOsG1Qel-21" value="No" style="text;html=1;strokeColor=none;fillColor=none;align=center;verticalAlign=middle;whiteSpace=wrap;rounded=0;" vertex="1" parent="WIyWlLk6GJQsqaUBKTNV-1">
          <mxGeometry x="580" y="123" width="60" height="30" as="geometry" />
        </mxCell>
        <mxCell id="4Ep3CnUJhhiaBOsG1Qel-24" style="edgeStyle=orthogonalEdgeStyle;rounded=0;orthogonalLoop=1;jettySize=auto;html=1;" edge="1" parent="WIyWlLk6GJQsqaUBKTNV-1" source="4Ep3CnUJhhiaBOsG1Qel-22">
          <mxGeometry relative="1" as="geometry">
            <mxPoint x="595" y="263" as="targetPoint" />
          </mxGeometry>
        </mxCell>
        <mxCell id="4Ep3CnUJhhiaBOsG1Qel-33" style="edgeStyle=orthogonalEdgeStyle;rounded=0;orthogonalLoop=1;jettySize=auto;html=1;exitX=1;exitY=0.5;exitDx=0;exitDy=0;entryX=0;entryY=0.5;entryDx=0;entryDy=0;" edge="1" parent="WIyWlLk6GJQsqaUBKTNV-1" source="4Ep3CnUJhhiaBOsG1Qel-22" target="4Ep3CnUJhhiaBOsG1Qel-32">
          <mxGeometry relative="1" as="geometry" />
        </mxCell>
        <mxCell id="4Ep3CnUJhhiaBOsG1Qel-22" value="Did the &lt;br&gt;tester throw an error" style="rhombus;whiteSpace=wrap;html=1;" vertex="1" parent="WIyWlLk6GJQsqaUBKTNV-1">
          <mxGeometry x="555" y="153" width="80" height="80" as="geometry" />
        </mxCell>
        <mxCell id="4Ep3CnUJhhiaBOsG1Qel-27" style="edgeStyle=orthogonalEdgeStyle;rounded=0;orthogonalLoop=1;jettySize=auto;html=1;entryX=0.5;entryY=1;entryDx=0;entryDy=0;" edge="1" parent="WIyWlLk6GJQsqaUBKTNV-1" source="4Ep3CnUJhhiaBOsG1Qel-25" target="4Ep3CnUJhhiaBOsG1Qel-32">
          <mxGeometry relative="1" as="geometry">
            <mxPoint x="670" y="303" as="targetPoint" />
          </mxGeometry>
        </mxCell>
        <mxCell id="4Ep3CnUJhhiaBOsG1Qel-30" style="edgeStyle=orthogonalEdgeStyle;rounded=0;orthogonalLoop=1;jettySize=auto;html=1;exitX=0.5;exitY=1;exitDx=0;exitDy=0;" edge="1" parent="WIyWlLk6GJQsqaUBKTNV-1" source="4Ep3CnUJhhiaBOsG1Qel-25">
          <mxGeometry relative="1" as="geometry">
            <mxPoint x="595" y="370" as="targetPoint" />
          </mxGeometry>
        </mxCell>
        <mxCell id="4Ep3CnUJhhiaBOsG1Qel-25" value="Is it sorted?" style="rhombus;whiteSpace=wrap;html=1;" vertex="1" parent="WIyWlLk6GJQsqaUBKTNV-1">
          <mxGeometry x="555" y="263" width="80" height="80" as="geometry" />
        </mxCell>
        <mxCell id="4Ep3CnUJhhiaBOsG1Qel-26" value="No" style="text;html=1;strokeColor=none;fillColor=none;align=center;verticalAlign=middle;whiteSpace=wrap;rounded=0;" vertex="1" parent="WIyWlLk6GJQsqaUBKTNV-1">
          <mxGeometry x="590" y="230" width="60" height="30" as="geometry" />
        </mxCell>
        <mxCell id="4Ep3CnUJhhiaBOsG1Qel-28" value="Yes" style="text;html=1;strokeColor=none;fillColor=none;align=center;verticalAlign=middle;whiteSpace=wrap;rounded=0;" vertex="1" parent="WIyWlLk6GJQsqaUBKTNV-1">
          <mxGeometry x="580" y="340" width="60" height="30" as="geometry" />
        </mxCell>
        <mxCell id="4Ep3CnUJhhiaBOsG1Qel-31" value="All Done" style="rounded=1;whiteSpace=wrap;html=1;" vertex="1" parent="WIyWlLk6GJQsqaUBKTNV-1">
          <mxGeometry x="535" y="370" width="120" height="60" as="geometry" />
        </mxCell>
        <mxCell id="4Ep3CnUJhhiaBOsG1Qel-36" style="edgeStyle=orthogonalEdgeStyle;rounded=0;orthogonalLoop=1;jettySize=auto;html=1;exitX=0.5;exitY=0;exitDx=0;exitDy=0;entryX=0.5;entryY=0;entryDx=0;entryDy=0;" edge="1" parent="WIyWlLk6GJQsqaUBKTNV-1" source="4Ep3CnUJhhiaBOsG1Qel-32" target="4Ep3CnUJhhiaBOsG1Qel-18">
          <mxGeometry relative="1" as="geometry">
            <mxPoint x="700" y="40" as="targetPoint" />
            <Array as="points">
              <mxPoint x="740" y="30" />
              <mxPoint x="600" y="30" />
            </Array>
          </mxGeometry>
        </mxCell>
        <mxCell id="4Ep3CnUJhhiaBOsG1Qel-32" value="Fix and Retest" style="rounded=1;whiteSpace=wrap;html=1;" vertex="1" parent="WIyWlLk6GJQsqaUBKTNV-1">
          <mxGeometry x="680" y="170" width="120" height="60" as="geometry" />
        </mxCell>
        <mxCell id="4Ep3CnUJhhiaBOsG1Qel-37" value="Yes" style="text;html=1;strokeColor=none;fillColor=none;align=center;verticalAlign=middle;whiteSpace=wrap;rounded=0;" vertex="1" parent="WIyWlLk6GJQsqaUBKTNV-1">
          <mxGeometry x="640" y="80" width="60" height="30" as="geometry" />
        </mxCell>
        <mxCell id="4Ep3CnUJhhiaBOsG1Qel-39" value="Yes" style="text;html=1;strokeColor=none;fillColor=none;align=center;verticalAlign=middle;whiteSpace=wrap;rounded=0;" vertex="1" parent="WIyWlLk6GJQsqaUBKTNV-1">
          <mxGeometry x="620" y="170" width="60" height="30" as="geometry" />
        </mxCell>
        <mxCell id="4Ep3CnUJhhiaBOsG1Qel-40" value="No" style="text;html=1;strokeColor=none;fillColor=none;align=center;verticalAlign=middle;whiteSpace=wrap;rounded=0;" vertex="1" parent="WIyWlLk6GJQsqaUBKTNV-1">
          <mxGeometry x="635" y="275" width="60" height="30" as="geometry" />
        </mxCell>
      </root>
    </mxGraphModel>
  </diagram>
</mxfile>
